<svg xmlns="http://www.w3.org/2000/svg" xmlns:xlink="http://www.w3.org/1999/xlink" width="500" height="418" version="1.1" viewBox="0 0 500 418"><title>Group</title><desc>Created using Figma</desc><g id="Canvas" transform="translate(-742 18)"><g id="Group"><g id="Group"><g id="Rectangle"><use fill="#283F51" transform="translate(742 0)" xlink:href="#path0_fill"/></g><g id="Rectangle 4"><use fill="#F3F3F3" transform="translate(742 -18)" xlink:href="#path1_fill"/></g></g><g id="Group"><g id="Ellipse"><use fill="#F14343" transform="translate(746 -14)" xlink:href="#path2_fill"/></g><g id="Ellipse"><use fill="#F1B943" transform="translate(761 -14)" xlink:href="#path2_fill"/><use fill="#F1B943" transform="translate(761 -14)" xlink:href="#path2_fill"/></g><g id="Ellipse"><use fill="#F1B943" transform="translate(776 -14)" xlink:href="#path2_fill"/><use fill="#61EA8D" transform="translate(776 -14)" xlink:href="#path2_fill"/></g></g><g id="Group" filter="url(#filter0_d)"><g id="Group"><g id="Rectangle 2"><use fill="#B34D7A" transform="translate(774 29)" xlink:href="#path3_fill"/></g><g id="Polygon"><use fill="#CC407E" transform="matrix(1.04083e-17 -1 1 1.04083e-17 759 42)" xlink:href="#path4_fill"/></g><g id="Polygon"><use fill="#CC407E" transform="matrix(-1.04083e-17 -1 -1 1.04083e-17 849 42)" xlink:href="#path4_fill"/></g></g><g id="Group"><g id="Rectangle 2"><use fill="#B34D7A" transform="translate(774 365)" xlink:href="#path3_fill"/></g><g id="Polygon"><use fill="#CC407E" transform="matrix(1.04083e-17 -1 1 1.04083e-17 759 378)" xlink:href="#path4_fill"/></g><g id="Polygon"><use fill="#CC407E" transform="matrix(-1.04083e-17 -1 -1 1.04083e-17 849 378)" xlink:href="#path4_fill"/></g></g><g id="Rectangle 2"><use fill="#4DABB3" transform="translate(787 97)" xlink:href="#path5_fill"/></g><g id="Polygon"><use fill="#40CCCC" transform="matrix(1.04083e-17 -1 1 1.04083e-17 772 110)" xlink:href="#path4_fill"/></g><g id="Polygon"><use fill="#40CCCC" transform="matrix(-1.04083e-17 -1 -1 1.04083e-17 841 110)" xlink:href="#path4_fill"/></g><g id="Rectangle 2"><use fill="#4DABB3" transform="translate(787 147)" xlink:href="#path5_fill"/></g><g id="Polygon"><use fill="#40CCCC" transform="matrix(1.04083e-17 -1 1 1.04083e-17 772 160)" xlink:href="#path4_fill"/></g><g id="Polygon"><use fill="#40CCCC" transform="matrix(-1.04083e-17 -1 -1 1.04083e-17 841 160)" xlink:href="#path4_fill"/></g><g id="Rectangle 2"><use fill="#FFBA53" transform="translate(801 114)" xlink:href="#path6_fill"/></g><g id="Polygon"><use fill="#F3BE36" transform="matrix(1.04083e-17 -1 1 1.04083e-17 786 127)" xlink:href="#path4_fill"/></g><g id="Polygon"><use fill="#F3BE36" transform="matrix(-1.04083e-17 -1 -1 1.04083e-17 906 127)" xlink:href="#path4_fill"/></g><g id="Rectangle 2"><use fill="#FFBA53" transform="translate(801 130)" xlink:href="#path6_fill"/></g><g id="Polygon"><use fill="#F3BE36" transform="matrix(1.04083e-17 -1 1 1.04083e-17 786 143)" xlink:href="#path4_fill"/></g><g id="Polygon"><use fill="#F3BE36" transform="matrix(-1.04083e-17 -1 -1 1.04083e-17 906 143)" xlink:href="#path4_fill"/></g><g id="Rectangle 2"><use fill="#4DABB3" transform="translate(787 164)" xlink:href="#path5_fill"/></g><g id="Polygon"><use fill="#40CCCC" transform="matrix(1.04083e-17 -1 1 1.04083e-17 772 177)" xlink:href="#path4_fill"/></g><g id="Polygon"><use fill="#40CCCC" transform="matrix(-1.04083e-17 -1 -1 1.04083e-17 841 177)" xlink:href="#path4_fill"/></g><g id="Rectangle 2"><use fill="#4DABB3" transform="translate(787 214)" xlink:href="#path5_fill"/></g><g id="Polygon"><use fill="#40CCCC" transform="matrix(1.04083e-17 -1 1 1.04083e-17 772 227)" xlink:href="#path4_fill"/></g><g id="Polygon"><use fill="#40CCCC" transform="matrix(-1.04083e-17 -1 -1 1.04083e-17 841 227)" xlink:href="#path4_fill"/></g><g id="Rectangle 2"><use fill="#FFBA53" transform="translate(801 181)" xlink:href="#path6_fill"/></g><g id="Polygon"><use fill="#F3BE36" transform="matrix(1.04083e-17 -1 1 1.04083e-17 786 194)" xlink:href="#path4_fill"/></g><g id="Polygon"><use fill="#F3BE36" transform="matrix(-1.04083e-17 -1 -1 1.04083e-17 906 194)" xlink:href="#path4_fill"/></g><g id="Rectangle 2"><use fill="#FFBA53" transform="translate(801 197)" xlink:href="#path6_fill"/></g><g id="Polygon"><use fill="#F3BE36" transform="matrix(1.04083e-17 -1 1 1.04083e-17 786 210)" xlink:href="#path4_fill"/></g><g id="Polygon"><use fill="#F3BE36" transform="matrix(-1.04083e-17 -1 -1 1.04083e-17 906 210)" xlink:href="#path4_fill"/></g><g id="Rectangle 2"><use fill="#4DABB3" transform="translate(787 231)" xlink:href="#path5_fill"/></g><g id="Polygon"><use fill="#40CCCC" transform="matrix(1.04083e-17 -1 1 1.04083e-17 772 244)" xlink:href="#path4_fill"/></g><g id="Polygon"><use fill="#40CCCC" transform="matrix(-1.04083e-17 -1 -1 1.04083e-17 841 244)" xlink:href="#path4_fill"/></g><g id="Rectangle 2"><use fill="#4DABB3" transform="translate(787 281)" xlink:href="#path5_fill"/></g><g id="Polygon"><use fill="#40CCCC" transform="matrix(1.04083e-17 -1 1 1.04083e-17 772 294)" xlink:href="#path4_fill"/></g><g id="Polygon"><use fill="#40CCCC" transform="matrix(-1.04083e-17 -1 -1 1.04083e-17 841 294)" xlink:href="#path4_fill"/></g><g id="Rectangle 2"><use fill="#FFBA53" transform="translate(801 248)" xlink:href="#path6_fill"/></g><g id="Polygon"><use fill="#F3BE36" transform="matrix(1.04083e-17 -1 1 1.04083e-17 786 261)" xlink:href="#path4_fill"/></g><g id="Polygon"><use fill="#F3BE36" transform="matrix(-1.04083e-17 -1 -1 1.04083e-17 906 261)" xlink:href="#path4_fill"/></g><g id="Rectangle 2"><use fill="#FFBA53" transform="translate(801 264)" xlink:href="#path6_fill"/></g><g id="Polygon"><use fill="#F3BE36" transform="matrix(1.04083e-17 -1 1 1.04083e-17 786 277)" xlink:href="#path4_fill"/></g><g id="Polygon"><use fill="#F3BE36" transform="matrix(-1.04083e-17 -1 -1 1.04083e-17 906 277)" xlink:href="#path4_fill"/></g><g id="Rectangle 2"><use fill="#4DABB3" transform="translate(787 97)" xlink:href="#path5_fill"/></g><g id="Polygon"><use fill="#40CCCC" transform="matrix(1.04083e-17 -1 1 1.04083e-17 772 110)" xlink:href="#path4_fill"/></g><g id="Polygon"><use fill="#40CCCC" transform="matrix(-1.04083e-17 -1 -1 1.04083e-17 841 110)" xlink:href="#path4_fill"/></g><g id="Rectangle 2"><use fill="#4DABB3" transform="translate(787 147)" xlink:href="#path5_fill"/></g><g id="Polygon"><use fill="#40CCCC" transform="matrix(1.04083e-17 -1 1 1.04083e-17 772 160)" xlink:href="#path4_fill"/></g><g id="Polygon"><use fill="#40CCCC" transform="matrix(-1.04083e-17 -1 -1 1.04083e-17 841 160)" xlink:href="#path4_fill"/></g><g id="Rectangle 2"><use fill="#FFBA53" transform="translate(801 114)" xlink:href="#path6_fill"/></g><g id="Polygon"><use fill="#F3BE36" transform="matrix(1.04083e-17 -1 1 1.04083e-17 786 127)" xlink:href="#path4_fill"/></g><g id="Polygon"><use fill="#F3BE36" transform="matrix(-1.04083e-17 -1 -1 1.04083e-17 906 127)" xlink:href="#path4_fill"/></g><g id="Rectangle 2"><use fill="#FFBA53" transform="translate(801 130)" xlink:href="#path6_fill"/></g><g id="Polygon"><use fill="#F3BE36" transform="matrix(1.04083e-17 -1 1 1.04083e-17 786 143)" xlink:href="#path4_fill"/></g><g id="Polygon"><use fill="#F3BE36" transform="matrix(-1.04083e-17 -1 -1 1.04083e-17 906 143)" xlink:href="#path4_fill"/></g><g id="Rectangle 2"><use fill="#4DABB3" transform="translate(787 298)" xlink:href="#path5_fill"/></g><g id="Polygon"><use fill="#40CCCC" transform="matrix(1.04083e-17 -1 1 1.04083e-17 772 311)" xlink:href="#path4_fill"/></g><g id="Polygon"><use fill="#40CCCC" transform="matrix(-1.04083e-17 -1 -1 1.04083e-17 841 311)" xlink:href="#path4_fill"/></g><g id="Rectangle 2"><use fill="#4DABB3" transform="translate(787 348)" xlink:href="#path5_fill"/></g><g id="Polygon"><use fill="#40CCCC" transform="matrix(1.04083e-17 -1 1 1.04083e-17 772 361)" xlink:href="#path4_fill"/></g><g id="Polygon"><use fill="#40CCCC" transform="matrix(-1.04083e-17 -1 -1 1.04083e-17 841 361)" xlink:href="#path4_fill"/></g><g id="Rectangle 2"><use fill="#FFBA53" transform="translate(801 315)" xlink:href="#path6_fill"/></g><g id="Polygon"><use fill="#F3BE36" transform="matrix(1.04083e-17 -1 1 1.04083e-17 786 328)" xlink:href="#path4_fill"/></g><g id="Polygon"><use fill="#F3BE36" transform="matrix(-1.04083e-17 -1 -1 1.04083e-17 906 328)" xlink:href="#path4_fill"/></g><g id="Rectangle 2"><use fill="#FFBA53" transform="translate(801 331)" xlink:href="#path6_fill"/></g><g id="Polygon"><use fill="#F3BE36" transform="matrix(1.04083e-17 -1 1 1.04083e-17 786 344)" xlink:href="#path4_fill"/></g><g id="Polygon"><use fill="#F3BE36" transform="matrix(-1.04083e-17 -1 -1 1.04083e-17 906 344)" xlink:href="#path4_fill"/></g><g id="Group"><g id="Rectangle 2"><use fill="#864DB3" transform="translate(787 46)" xlink:href="#path3_fill"/></g><g id="Polygon"><use fill="#9F40CC" transform="matrix(1.04083e-17 -1 1 1.04083e-17 772 59)" xlink:href="#path4_fill"/></g><g id="Polygon"><use fill="#9F40CC" transform="matrix(-1.04083e-17 -1 -1 1.04083e-17 862 59)" xlink:href="#path4_fill"/></g></g><g id="Group"><g id="Rectangle 2"><use fill="#864DB3" transform="translate(787 63)" xlink:href="#path3_fill"/></g><g id="Polygon"><use fill="#9F40CC" transform="matrix(1.04083e-17 -1 1 1.04083e-17 772 76)" xlink:href="#path4_fill"/></g><g id="Polygon"><use fill="#9F40CC" transform="matrix(-1.04083e-17 -1 -1 1.04083e-17 862 76)" xlink:href="#path4_fill"/></g></g><g id="Group"><g id="Rectangle 2"><use fill="#864DB3" transform="translate(787 80)" xlink:href="#path3_fill"/></g><g id="Polygon"><use fill="#9F40CC" transform="matrix(1.04083e-17 -1 1 1.04083e-17 772 93)" xlink:href="#path4_fill"/></g><g id="Polygon"><use fill="#9F40CC" transform="matrix(-1.04083e-17 -1 -1 1.04083e-17 862 93)" xlink:href="#path4_fill"/></g></g></g><g id="Group"><g id="Group"><g id="Rectangle 2"><use fill="#B34D7A" transform="translate(1150.06 22.4543)" xlink:href="#path7_fill"/></g><g id="Polygon"><use fill="#CC407E" transform="matrix(1.2313e-17 -1 1 8.79834e-18 1142 28.36)" xlink:href="#path8_fill"/></g><g id="Polygon"><use fill="#CC407E" transform="matrix(-1.2313e-17 -1 -1 8.79834e-18 1190.37 28.36)" xlink:href="#path8_fill"/></g></g><g id="Group"><g id="Rectangle 2"><use fill="#B34D7A" transform="translate(1150.06 175.094)" xlink:href="#path7_fill"/></g><g id="Polygon"><use fill="#CC407E" transform="matrix(1.2313e-17 -1 1 8.79834e-18 1142 181)" xlink:href="#path8_fill"/></g><g id="Polygon"><use fill="#CC407E" transform="matrix(-1.2313e-17 -1 -1 8.79834e-18 1190.37 181)" xlink:href="#path8_fill"/></g></g><g id="Rectangle 2"><use fill="#4DABB3" transform="translate(1157.05 53.3457)" xlink:href="#path9_fill"/></g><g id="Polygon"><use fill="#40CCCC" transform="matrix(1.2313e-17 -1 1 8.79834e-18 1148.99 59.2514)" xlink:href="#path8_fill"/></g><g id="Polygon"><use fill="#40CCCC" transform="matrix(-1.2313e-17 -1 -1 8.79834e-18 1186.07 59.2514)" xlink:href="#path8_fill"/></g><g id="Rectangle 2"><use fill="#4DABB3" transform="translate(1157.05 76.06)" xlink:href="#path9_fill"/></g><g id="Polygon"><use fill="#40CCCC" transform="matrix(1.2313e-17 -1 1 8.79834e-18 1148.99 81.9657)" xlink:href="#path8_fill"/></g><g id="Polygon"><use fill="#40CCCC" transform="matrix(-1.2313e-17 -1 -1 8.79834e-18 1186.07 81.9657)" xlink:href="#path8_fill"/></g><g id="Rectangle 2"><use fill="#FFBA53" transform="translate(1164.57 61.0686)" xlink:href="#path10_fill"/></g><g id="Polygon"><use fill="#F3BE36" transform="matrix(1.2313e-17 -1 1 8.79834e-18 1156.51 66.9743)" xlink:href="#path8_fill"/></g><g id="Polygon"><use fill="#F3BE36" transform="matrix(-1.2313e-17 -1 -1 8.79834e-18 1221 66.9743)" xlink:href="#path8_fill"/></g><g id="Rectangle 2"><use fill="#FFBA53" transform="translate(1164.57 68.3371)" xlink:href="#path10_fill"/></g><g id="Polygon"><use fill="#F3BE36" transform="matrix(1.2313e-17 -1 1 8.79834e-18 1156.51 74.2429)" xlink:href="#path8_fill"/></g><g id="Polygon"><use fill="#F3BE36" transform="matrix(-1.2313e-17 -1 -1 8.79834e-18 1221 74.2429)" xlink:href="#path8_fill"/></g><g id="Rectangle 2"><use fill="#4DABB3" transform="translate(1157.05 83.7829)" xlink:href="#path9_fill"/></g><g id="Polygon"><use fill="#40CCCC" transform="matrix(1.2313e-17 -1 1 8.79834e-18 1148.99 89.6886)" xlink:href="#path8_fill"/></g><g id="Polygon"><use fill="#40CCCC" transform="matrix(-1.2313e-17 -1 -1 8.79834e-18 1186.07 89.6886)" xlink:href="#path8_fill"/></g><g id="Rectangle 2"><use fill="#4DABB3" transform="translate(1157.05 106.497)" xlink:href="#path9_fill"/></g><g id="Polygon"><use fill="#40CCCC" transform="matrix(1.2313e-17 -1 1 8.79834e-18 1148.99 112.403)" xlink:href="#path8_fill"/></g><g id="Polygon"><use fill="#40CCCC" transform="matrix(-1.2313e-17 -1 -1 8.79834e-18 1186.07 112.403)" xlink:href="#path8_fill"/></g><g id="Rectangle 2"><use fill="#FFBA53" transform="translate(1164.57 91.5057)" xlink:href="#path10_fill"/></g><g id="Polygon"><use fill="#F3BE36" transform="matrix(1.2313e-17 -1 1 8.79834e-18 1156.51 97.4114)" xlink:href="#path8_fill"/></g><g id="Polygon"><use fill="#F3BE36" transform="matrix(-1.2313e-17 -1 -1 8.79834e-18 1221 97.4114)" xlink:href="#path8_fill"/></g><g id="Rectangle 2"><use fill="#FFBA53" transform="translate(1164.57 98.7743)" xlink:href="#path10_fill"/></g><g id="Polygon"><use fill="#F3BE36" transform="matrix(1.2313e-17 -1 1 8.79834e-18 1156.51 104.68)" xlink:href="#path8_fill"/></g><g id="Polygon"><use fill="#F3BE36" transform="matrix(-1.2313e-17 -1 -1 8.79834e-18 1221 104.68)" xlink:href="#path8_fill"/></g><g id="Rectangle 2"><use fill="#4DABB3" transform="translate(1157.05 114.22)" xlink:href="#path9_fill"/></g><g id="Polygon"><use fill="#40CCCC" transform="matrix(1.2313e-17 -1 1 8.79834e-18 1148.99 120.126)" xlink:href="#path8_fill"/></g><g id="Polygon"><use fill="#40CCCC" transform="matrix(-1.2313e-17 -1 -1 8.79834e-18 1186.07 120.126)" xlink:href="#path8_fill"/></g><g id="Rectangle 2"><use fill="#4DABB3" transform="translate(1157.05 136.934)" xlink:href="#path9_fill"/></g><g id="Polygon"><use fill="#40CCCC" transform="matrix(1.2313e-17 -1 1 8.79834e-18 1148.99 142.84)" xlink:href="#path8_fill"/></g><g id="Polygon"><use fill="#40CCCC" transform="matrix(-1.2313e-17 -1 -1 8.79834e-18 1186.07 142.84)" xlink:href="#path8_fill"/></g><g id="Rectangle 2"><use fill="#FFBA53" transform="translate(1164.57 121.943)" xlink:href="#path10_fill"/></g><g id="Polygon"><use fill="#F3BE36" transform="matrix(1.2313e-17 -1 1 8.79834e-18 1156.51 127.849)" xlink:href="#path8_fill"/></g><g id="Polygon"><use fill="#F3BE36" transform="matrix(-1.2313e-17 -1 -1 8.79834e-18 1221 127.849)" xlink:href="#path8_fill"/></g><g id="Rectangle 2"><use fill="#FFBA53" transform="translate(1164.57 129.211)" xlink:href="#path10_fill"/></g><g id="Polygon"><use fill="#F3BE36" transform="matrix(1.2313e-17 -1 1 8.79834e-18 1156.51 135.117)" xlink:href="#path8_fill"/></g><g id="Polygon"><use fill="#F3BE36" transform="matrix(-1.2313e-17 -1 -1 8.79834e-18 1221 135.117)" xlink:href="#path8_fill"/></g><g id="Rectangle 2"><use fill="#4DABB3" transform="translate(1157.05 53.3457)" xlink:href="#path9_fill"/></g><g id="Polygon"><use fill="#40CCCC" transform="matrix(1.2313e-17 -1 1 8.79834e-18 1148.99 59.2514)" xlink:href="#path8_fill"/></g><g id="Polygon"><use fill="#40CCCC" transform="matrix(-1.2313e-17 -1 -1 8.79834e-18 1186.07 59.2514)" xlink:href="#path8_fill"/></g><g id="Rectangle 2"><use fill="#4DABB3" transform="translate(1157.05 76.06)" xlink:href="#path9_fill"/></g><g id="Polygon"><use fill="#40CCCC" transform="matrix(1.2313e-17 -1 1 8.79834e-18 1148.99 81.9657)" xlink:href="#path8_fill"/></g><g id="Polygon"><use fill="#40CCCC" transform="matrix(-1.2313e-17 -1 -1 8.79834e-18 1186.07 81.9657)" xlink:href="#path8_fill"/></g><g id="Rectangle 2"><use fill="#FFBA53" transform="translate(1164.57 61.0686)" xlink:href="#path10_fill"/></g><g id="Polygon"><use fill="#F3BE36" transform="matrix(1.2313e-17 -1 1 8.79834e-18 1156.51 66.9743)" xlink:href="#path8_fill"/></g><g id="Polygon"><use fill="#F3BE36" transform="matrix(-1.2313e-17 -1 -1 8.79834e-18 1221 66.9743)" xlink:href="#path8_fill"/></g><g id="Rectangle 2"><use fill="#FFBA53" transform="translate(1164.57 68.3371)" xlink:href="#path10_fill"/></g><g id="Polygon"><use fill="#F3BE36" transform="matrix(1.2313e-17 -1 1 8.79834e-18 1156.51 74.2429)" xlink:href="#path8_fill"/></g><g id="Polygon"><use fill="#F3BE36" transform="matrix(-1.2313e-17 -1 -1 8.79834e-18 1221 74.2429)" xlink:href="#path8_fill"/></g><g id="Rectangle 2"><use fill="#4DABB3" transform="translate(1157.05 144.657)" xlink:href="#path9_fill"/></g><g id="Polygon"><use fill="#40CCCC" transform="matrix(1.2313e-17 -1 1 8.79834e-18 1148.99 150.563)" xlink:href="#path8_fill"/></g><g id="Polygon"><use fill="#40CCCC" transform="matrix(-1.2313e-17 -1 -1 8.79834e-18 1186.07 150.563)" xlink:href="#path8_fill"/></g><g id="Rectangle 2"><use fill="#4DABB3" transform="translate(1157.05 167.371)" xlink:href="#path9_fill"/></g><g id="Polygon"><use fill="#40CCCC" transform="matrix(1.2313e-17 -1 1 8.79834e-18 1148.99 173.277)" xlink:href="#path8_fill"/></g><g id="Polygon"><use fill="#40CCCC" transform="matrix(-1.2313e-17 -1 -1 8.79834e-18 1186.07 173.277)" xlink:href="#path8_fill"/></g><g id="Rectangle 2"><use fill="#FFBA53" transform="translate(1164.57 152.38)" xlink:href="#path10_fill"/></g><g id="Polygon"><use fill="#F3BE36" transform="matrix(1.2313e-17 -1 1 8.79834e-18 1156.51 158.286)" xlink:href="#path8_fill"/></g><g id="Polygon"><use fill="#F3BE36" transform="matrix(-1.2313e-17 -1 -1 8.79834e-18 1221 158.286)" xlink:href="#path8_fill"/></g><g id="Rectangle 2"><use fill="#FFBA53" transform="translate(1164.57 159.649)" xlink:href="#path10_fill"/></g><g id="Polygon"><use fill="#F3BE36" transform="matrix(1.2313e-17 -1 1 8.79834e-18 1156.51 165.554)" xlink:href="#path8_fill"/></g><g id="Polygon"><use fill="#F3BE36" transform="matrix(-1.2313e-17 -1 -1 8.79834e-18 1221 165.554)" xlink:href="#path8_fill"/></g><g id="Group"><g id="Rectangle 2"><use fill="#864DB3" transform="translate(1157.05 30.1771)" xlink:href="#path7_fill"/></g><g id="Polygon"><use fill="#9F40CC" transform="matrix(1.2313e-17 -1 1 8.79834e-18 1148.99 36.0829)" xlink:href="#path8_fill"/></g><g id="Polygon"><use fill="#9F40CC" transform="matrix(-1.2313e-17 -1 -1 8.79834e-18 1197.35 36.0829)" xlink:href="#path8_fill"/></g></g><g id="Group"><g id="Rectangle 2"><use fill="#864DB3" transform="translate(1157.05 37.9)" xlink:href="#path7_fill"/></g><g id="Polygon"><use fill="#9F40CC" transform="matrix(1.2313e-17 -1 1 8.79834e-18 1148.99 43.8057)" xlink:href="#path8_fill"/></g><g id="Polygon"><use fill="#9F40CC" transform="matrix(-1.2313e-17 -1 -1 8.79834e-18 1197.35 43.8057)" xlink:href="#path8_fill"/></g></g><g id="Group"><g id="Rectangle 2"><use fill="#864DB3" transform="translate(1157.05 45.6229)" xlink:href="#path7_fill"/></g><g id="Polygon"><use fill="#9F40CC" transform="matrix(1.2313e-17 -1 1 8.79834e-18 1148.99 51.5286)" xlink:href="#path8_fill"/></g><g id="Polygon"><use fill="#9F40CC" transform="matrix(-1.2313e-17 -1 -1 8.79834e-18 1197.35 51.5286)" xlink:href="#path8_fill"/></g></g></g><g id="Rectangle 5"><use fill="#405D73" fill-opacity=".53" transform="translate(1133 11)" xlink:href="#path11_fill"/></g></g></g><defs><filter id="filter0_d" width="155" height="358" x="755" y="28" color-interpolation-filters="sRGB" filterUnits="userSpaceOnUse"><feFlood flood-opacity="0" result="BackgroundImageFix"/><feColorMatrix in="SourceAlpha" type="matrix" values="0 0 0 0 0 0 0 0 0 0 0 0 0 0 0 0 0 0 255 0"/><feOffset dx="0" dy="4"/><feGaussianBlur stdDeviation="2"/><feColorMatrix type="matrix" values="0 0 0 0 0 0 0 0 0 0 0 0 0 0 0 0 0 0 0.25 0"/><feBlend in2="BackgroundImageFix" mode="normal" result="effect1_dropShadow"/><feBlend in="SourceGraphic" in2="effect1_dropShadow" mode="normal" result="shape"/></filter><path id="path0_fill" d="M 0 0L 500 0L 500 400L 0 400L 0 0Z"/><path id="path1_fill" d="M 0 0L 500 0L 500 18L 0 18L 0 0Z"/><path id="path2_fill" d="M 10 5C 10 7.76142 7.76143 10 5 10C 2.23858 10 0 7.76142 0 5C 0 2.23858 2.23858 0 5 0C 7.76143 0 10 2.23858 10 5Z"/><path id="path3_fill" d="M 0 0L 60 0L 60 12L 0 12L 0 0Z"/><path id="path4_fill" d="M 7 0L 13.0622 10.5L 0.937822 10.5L 7 0Z"/><path id="path5_fill" d="M 0 0L 40 0L 40 12L 0 12L 0 0Z"/><path id="path6_fill" d="M 0 0L 90 0L 90 12L 0 12L 0 0Z"/><path id="path7_fill" d="M 0 0L 32.2449 0L 32.2449 5.45143L 0 5.45143L 0 0Z"/><path id="path8_fill" d="M 3.18 0L 5.93396 5.64286L 0.426039 5.64286L 3.18 0Z"/><path id="path9_fill" d="M 0 0L 21.4966 0L 21.4966 5.45143L 0 5.45143L 0 0Z"/><path id="path10_fill" d="M 0 0L 48.3673 0L 48.3673 5.45143L 0 5.45143L 0 0Z"/><path id="path11_fill" d="M 0 0L 98 0L 98 376L 0 376L 0 0Z"/></defs></svg>