<svg xmlns="http://www.w3.org/2000/svg" xmlns:xlink="http://www.w3.org/1999/xlink" width="500" height="418" version="1.1" viewBox="0 0 500 418"><title>Group</title><desc>Created using Figma</desc><g id="Canvas" transform="translate(70 18)"><g id="Group"><g id="Rectangle 4"><use fill="#F3F3F3" transform="translate(-70 -18)" xlink:href="#path0_fill"/></g><g id="Group"><g id="Rectangle"><use fill="#283F51" transform="translate(-70 0)" xlink:href="#path1_fill"/></g><g id="Ellipse"><use fill="#F14343" transform="translate(-66 -14)" xlink:href="#path2_fill"/></g><g id="Ellipse"><use fill="#F1B943" transform="translate(-51 -14)" xlink:href="#path2_fill"/><use fill="#F1B943" transform="translate(-51 -14)" xlink:href="#path2_fill"/></g><g id="Ellipse"><use fill="#F1B943" transform="translate(-36 -14)" xlink:href="#path2_fill"/><use fill="#61EA8D" transform="translate(-36 -14)" xlink:href="#path2_fill"/></g></g><g id="Group" filter="url(#filter0_d)"><g id="Rectangle 2"><use fill="#399ED7" transform="translate(-38 29)" xlink:href="#path3_fill"/></g><g id="Rectangle 2"><use fill="#DF9B35" transform="translate(-23 51)" xlink:href="#path4_fill"/></g><g id="Rectangle 2"><use fill="#FFBA53" transform="translate(-23 73)" xlink:href="#path4_fill"/></g><g id="Rectangle 2"><use fill="#F3AE47" transform="translate(-23 95)" xlink:href="#path5_fill"/></g><g id="Rectangle 2"><use fill="#33C7B0" transform="translate(-38 139)" xlink:href="#path6_fill"/></g><g id="Rectangle 2"><use fill="#DF9B35" transform="translate(-23 161)" xlink:href="#path4_fill"/></g><g id="Rectangle 2"><use fill="#FFBA53" transform="translate(-23 183)" xlink:href="#path4_fill"/></g><g id="Rectangle 2"><use fill="#F3AE47" transform="translate(-23 205)" xlink:href="#path7_fill"/></g><g id="Rectangle 2"><use fill="#399ED7" transform="translate(-38 249)" xlink:href="#path3_fill"/></g><g id="Rectangle 2"><use fill="#CECECE" transform="translate(-23 271)" xlink:href="#path4_fill"/></g><g id="Rectangle 2"><use fill="#EDEDED" transform="translate(-23 293)" xlink:href="#path4_fill"/></g><g id="Rectangle 2"><use fill="#DFDFDF" transform="translate(-23 315)" xlink:href="#path5_fill"/></g><g id="Rectangle 2"><use fill="#DFDFDF" transform="translate(-23 337)" xlink:href="#path4_fill"/></g><g id="Rectangle 2"><use fill="#E8E6E4" transform="translate(-23 359)" xlink:href="#path4_fill"/></g><g id="Rectangle 2"><use fill="#F3AE47" transform="translate(126 315)" xlink:href="#path8_fill"/></g></g><g id="Group"><g id="Rectangle 2"><use fill="#399ED7" transform="translate(325 23)" xlink:href="#path9_fill"/></g><g id="Rectangle 2"><use fill="#DF9B35" transform="translate(329.851 29.6257)" xlink:href="#path10_fill"/></g><g id="Rectangle 2"><use fill="#FFBA53" transform="translate(329.851 36.2515)" xlink:href="#path10_fill"/></g><g id="Rectangle 2"><use fill="#F3AE47" transform="translate(329.851 42.8772)" xlink:href="#path11_fill"/></g><g id="Rectangle 2"><use fill="#33C7B0" transform="translate(325 56.1287)" xlink:href="#path12_fill"/></g><g id="Rectangle 2"><use fill="#DF9B35" transform="translate(329.851 62.7544)" xlink:href="#path10_fill"/></g><g id="Rectangle 2"><use fill="#FFBA53" transform="translate(329.851 69.3801)" xlink:href="#path10_fill"/></g><g id="Rectangle 2"><use fill="#F3AE47" transform="translate(329.851 76.0058)" xlink:href="#path13_fill"/></g><g id="Rectangle 2"><use fill="#399ED7" transform="translate(325 89.2573)" xlink:href="#path9_fill"/></g><g id="Rectangle 2"><use fill="#CECECE" transform="translate(329.851 95.883)" xlink:href="#path10_fill"/></g><g id="Rectangle 2"><use fill="#EDEDED" transform="translate(329.851 102.509)" xlink:href="#path10_fill"/></g><g id="Rectangle 2"><use fill="#DFDFDF" transform="translate(329.851 109.134)" xlink:href="#path11_fill"/></g><g id="Rectangle 2"><use fill="#DFDFDF" transform="translate(329.851 115.76)" xlink:href="#path10_fill"/></g><g id="Rectangle 2"><use fill="#E8E6E4" transform="translate(329.851 122.386)" xlink:href="#path10_fill"/></g><g id="Rectangle 2"><use fill="#F3AE47" transform="translate(378.038 109.134)" xlink:href="#path14_fill"/></g></g><g id="Rectangle 5"><use fill="#405D73" fill-opacity=".53" transform="translate(316 12)" xlink:href="#path15_fill"/></g></g></g><defs><filter id="filter0_d" width="243" height="350" x="-42" y="29" color-interpolation-filters="sRGB" filterUnits="userSpaceOnUse"><feFlood flood-opacity="0" result="BackgroundImageFix"/><feColorMatrix in="SourceAlpha" type="matrix" values="0 0 0 0 0 0 0 0 0 0 0 0 0 0 0 0 0 0 255 0"/><feOffset dx="0" dy="4"/><feGaussianBlur stdDeviation="2"/><feColorMatrix type="matrix" values="0 0 0 0 0 0 0 0 0 0 0 0 0 0 0 0 0 0 0.25 0"/><feBlend in2="BackgroundImageFix" mode="normal" result="effect1_dropShadow"/><feBlend in="SourceGraphic" in2="effect1_dropShadow" mode="normal" result="shape"/></filter><path id="path0_fill" d="M 0 0L 500 0L 500 18L 0 18L 0 0Z"/><path id="path1_fill" d="M 0 0L 500 0L 500 400L 0 400L 0 0Z"/><path id="path2_fill" d="M 10 5C 10 7.76142 7.76142 10 5 10C 2.23858 10 0 7.76142 0 5C 0 2.23858 2.23858 0 5 0C 7.76142 0 10 2.23858 10 5Z"/><path id="path3_fill" d="M 0 0L 132 0L 132 12L 0 12L 0 0Z"/><path id="path4_fill" d="M 0 0L 220 0L 220 12L 0 12L 0 0Z"/><path id="path5_fill" d="M 0 0L 143 0L 143 12L 0 12L 0 0Z"/><path id="path6_fill" d="M 0 0L 100 0L 100 12L 0 12L 0 0Z"/><path id="path7_fill" d="M 0 0L 80 0L 80 12L 0 12L 0 0Z"/><path id="path8_fill" d="M 0 0L 71 0L 71 12L 0 12L 0 0Z"/><path id="path9_fill" d="M 0 0L 42.6894 0L 42.6894 3.61404L 0 3.61404L 0 0Z"/><path id="path10_fill" d="M 0 0L 71.1489 0L 71.1489 3.61404L 0 3.61404L 0 0Z"/><path id="path11_fill" d="M 0 0L 46.2468 0L 46.2468 3.61404L 0 3.61404L 0 0Z"/><path id="path12_fill" d="M 0 0L 32.3404 0L 32.3404 3.61404L 0 3.61404L 0 0Z"/><path id="path13_fill" d="M 0 0L 25.8723 0L 25.8723 3.61404L 0 3.61404L 0 0Z"/><path id="path14_fill" d="M 0 0L 22.9617 0L 22.9617 3.61404L 0 3.61404L 0 0Z"/><path id="path15_fill" d="M 0 0L 98 0L 98 376L 0 376L 0 0Z"/></defs></svg>